<?xml version="1.0" standalone="no"?>
<!DOCTYPE svg PUBLIC "-//W3C//DTD SVG 20010904//EN"
 "http://www.w3.org/TR/2001/REC-SVG-20010904/DTD/svg10.dtd">
<svg version="1.0" xmlns="http://www.w3.org/2000/svg"
 width="959.000000pt" height="959.000000pt" viewBox="0 0 959.000000 959.000000"
 preserveAspectRatio="xMidYMid meet">

<g transform="translate(0.000000,959.000000) scale(0.100000,-0.100000)"
fill="#000000" stroke="none">
<path d="M1790 8040 l0 -60 1518 0 c1745 0 1801 -2 2130 -76 578 -129 1132
-451 1523 -887 649 -721 903 -1685 693 -2625 -90 -402 -266 -781 -518 -1117
-400 -532 -978 -918 -1614 -1080 l-101 -25 -1710 0 -1711 0 0 1060 0 1060
-210 0 -210 0 0 -1060 0 -1060 -645 0 -645 0 0 -130 0 -130 4500 0 4500 0 0
130 0 130 -1706 2 -1707 3 84 34 c354 143 710 382 994 666 505 505 814 1160
885 1874 13 133 13 449 0 582 -145 1465 -1294 2614 -2759 2759 -66 6 -682 10
-1697 10 l-1594 0 0 -60z"/>
<path d="M4620 5415 l0 -1875 170 0 170 0 0 1875 0 1875 -170 0 -170 0 0
-1875z"/>
</g>
</svg>
